<?xml version="1.0" encoding="UTF-8"?>
<svg xmlns="http://www.w3.org/2000/svg" width="1200" height="220" viewBox="0 0 1200 220" role="img" aria-label="Daily generated profile banner">
<title>daily seed 2026-07-09</title>
<defs>
<linearGradient id="bg" x1="0" y1="0" x2="1" y2="1">
<stop offset="0%" stop-color="#0b1020"/>
<stop offset="58%" stop-color="#13233a"/>
<stop offset="100%" stop-color="#0b1020"/>
</linearGradient>
<radialGradient id="glow" cx="50%" cy="35%" r="70%">
<stop offset="0%" stop-color="#8aa4ff" stop-opacity="0.26"/>
<stop offset="55%" stop-color="#64d2ff" stop-opacity="0.08"/>
<stop offset="100%" stop-color="#000000" stop-opacity="0"/>
</radialGradient>
<filter id="soft"><feGaussianBlur stdDeviation="8"/></filter>
<filter id="tiny"><feGaussianBlur stdDeviation="1.6"/></filter>
</defs>
<rect width="1200" height="220" fill="url(#bg)"/>
<rect width="1200" height="220" fill="url(#glow)"/>
<rect x="192" y="0" width="24" height="24" fill="#ffd166" opacity="0.142"/>
<rect x="312" y="0" width="48" height="24" fill="#64d2ff" opacity="0.039"/>
<rect x="576" y="0" width="48" height="24" fill="#64d2ff" opacity="0.130"/>
<rect x="888" y="0" width="48" height="24" fill="#ffd166" opacity="0.038"/>
<rect x="936" y="0" width="24" height="24" fill="#ffd166" opacity="0.044"/>
<rect x="960" y="0" width="48" height="24" fill="#87f5b5" opacity="0.069"/>
<rect x="1080" y="0" width="24" height="24" fill="#64d2ff" opacity="0.039"/>
<rect x="1104" y="0" width="24" height="24" fill="#ffffff" opacity="0.036"/>
<rect x="1128" y="0" width="48" height="24" fill="#ffd166" opacity="0.091"/>
<rect x="1152" y="0" width="24" height="24" fill="#87f5b5" opacity="0.119"/>
<rect x="1176" y="0" width="24" height="24" fill="#ffffff" opacity="0.098"/>
<rect x="264" y="24" width="24" height="24" fill="#ffffff" opacity="0.082"/>
<rect x="312" y="24" width="48" height="24" fill="#ffffff" opacity="0.066"/>
<rect x="384" y="24" width="24" height="24" fill="#8aa4ff" opacity="0.062"/>
<rect x="456" y="24" width="24" height="24" fill="#64d2ff" opacity="0.113"/>
<rect x="600" y="24" width="48" height="24" fill="#ffd166" opacity="0.081"/>
<rect x="768" y="24" width="24" height="24" fill="#ffffff" opacity="0.124"/>
<rect x="984" y="24" width="48" height="24" fill="#ffd166" opacity="0.045"/>
<rect x="1032" y="24" width="48" height="24" fill="#87f5b5" opacity="0.144"/>
<rect x="1080" y="24" width="24" height="24" fill="#ffffff" opacity="0.151"/>
<rect x="96" y="48" width="24" height="24" fill="#87f5b5" opacity="0.076"/>
<rect x="624" y="48" width="48" height="24" fill="#8aa4ff" opacity="0.154"/>
<rect x="960" y="48" width="24" height="24" fill="#ffffff" opacity="0.061"/>
<rect x="1056" y="48" width="48" height="24" fill="#ffffff" opacity="0.108"/>
<rect x="1176" y="48" width="48" height="24" fill="#ffffff" opacity="0.098"/>
<rect x="288" y="72" width="24" height="24" fill="#64d2ff" opacity="0.056"/>
<rect x="480" y="72" width="24" height="24" fill="#ffffff" opacity="0.098"/>
<rect x="504" y="72" width="24" height="24" fill="#64d2ff" opacity="0.133"/>
<rect x="1008" y="72" width="48" height="24" fill="#ffffff" opacity="0.119"/>
<rect x="1056" y="72" width="24" height="24" fill="#ffffff" opacity="0.131"/>
<rect x="120" y="96" width="24" height="24" fill="#ffd166" opacity="0.090"/>
<rect x="528" y="96" width="24" height="24" fill="#64d2ff" opacity="0.139"/>
<rect x="624" y="96" width="24" height="24" fill="#ffffff" opacity="0.131"/>
<rect x="768" y="96" width="24" height="24" fill="#8aa4ff" opacity="0.126"/>
<rect x="960" y="96" width="24" height="24" fill="#ffffff" opacity="0.066"/>
<rect x="1056" y="96" width="24" height="24" fill="#ffffff" opacity="0.086"/>
<rect x="48" y="120" width="24" height="24" fill="#64d2ff" opacity="0.135"/>
<rect x="144" y="120" width="24" height="24" fill="#64d2ff" opacity="0.058"/>
<rect x="168" y="120" width="24" height="24" fill="#ffffff" opacity="0.044"/>
<rect x="264" y="120" width="48" height="24" fill="#8aa4ff" opacity="0.125"/>
<rect x="288" y="120" width="24" height="24" fill="#8aa4ff" opacity="0.146"/>
<rect x="336" y="120" width="24" height="24" fill="#ffffff" opacity="0.087"/>
<rect x="384" y="120" width="48" height="24" fill="#64d2ff" opacity="0.085"/>
<rect x="408" y="120" width="24" height="24" fill="#ffd166" opacity="0.049"/>
<rect x="600" y="120" width="24" height="24" fill="#ffffff" opacity="0.098"/>
<rect x="648" y="120" width="24" height="24" fill="#64d2ff" opacity="0.073"/>
<rect x="720" y="120" width="24" height="24" fill="#87f5b5" opacity="0.051"/>
<rect x="744" y="120" width="24" height="24" fill="#ffd166" opacity="0.101"/>
<rect x="840" y="120" width="24" height="24" fill="#ffd166" opacity="0.042"/>
<rect x="912" y="120" width="24" height="24" fill="#8aa4ff" opacity="0.080"/>
<rect x="936" y="120" width="24" height="24" fill="#8aa4ff" opacity="0.138"/>
<rect x="984" y="120" width="24" height="24" fill="#64d2ff" opacity="0.078"/>
<rect x="1128" y="120" width="24" height="24" fill="#64d2ff" opacity="0.066"/>
<rect x="72" y="144" width="48" height="24" fill="#ffd166" opacity="0.045"/>
<rect x="144" y="144" width="24" height="24" fill="#ffffff" opacity="0.075"/>
<rect x="168" y="144" width="24" height="24" fill="#87f5b5" opacity="0.154"/>
<rect x="240" y="144" width="24" height="24" fill="#8aa4ff" opacity="0.080"/>
<rect x="528" y="144" width="24" height="24" fill="#87f5b5" opacity="0.121"/>
<rect x="600" y="144" width="24" height="24" fill="#ffd166" opacity="0.076"/>
<rect x="624" y="144" width="24" height="24" fill="#ffffff" opacity="0.057"/>
<rect x="672" y="144" width="48" height="24" fill="#87f5b5" opacity="0.126"/>
<rect x="696" y="144" width="24" height="24" fill="#8aa4ff" opacity="0.156"/>
<rect x="720" y="144" width="48" height="24" fill="#ffffff" opacity="0.079"/>
<rect x="744" y="144" width="24" height="24" fill="#ffffff" opacity="0.048"/>
<rect x="888" y="144" width="24" height="24" fill="#64d2ff" opacity="0.112"/>
<rect x="912" y="144" width="24" height="24" fill="#ffffff" opacity="0.148"/>
<rect x="1008" y="144" width="48" height="24" fill="#ffffff" opacity="0.105"/>
<rect x="1080" y="144" width="24" height="24" fill="#8aa4ff" opacity="0.093"/>
<rect x="1128" y="144" width="24" height="24" fill="#64d2ff" opacity="0.141"/>
<rect x="1152" y="144" width="24" height="24" fill="#ffffff" opacity="0.139"/>
<rect x="24" y="168" width="24" height="24" fill="#8aa4ff" opacity="0.073"/>
<rect x="48" y="168" width="48" height="24" fill="#87f5b5" opacity="0.089"/>
<rect x="360" y="168" width="48" height="24" fill="#ffd166" opacity="0.085"/>
<rect x="432" y="168" width="24" height="24" fill="#8aa4ff" opacity="0.072"/>
<rect x="624" y="168" width="24" height="24" fill="#87f5b5" opacity="0.148"/>
<rect x="648" y="168" width="24" height="24" fill="#ffffff" opacity="0.046"/>
<rect x="672" y="168" width="24" height="24" fill="#8aa4ff" opacity="0.076"/>
<rect x="792" y="168" width="24" height="24" fill="#ffffff" opacity="0.102"/>
<rect x="912" y="168" width="24" height="24" fill="#8aa4ff" opacity="0.140"/>
<rect x="936" y="168" width="24" height="24" fill="#ffd166" opacity="0.067"/>
<rect x="1008" y="168" width="48" height="24" fill="#ffd166" opacity="0.139"/>
<rect x="1104" y="168" width="24" height="24" fill="#ffffff" opacity="0.126"/>
<rect x="1176" y="168" width="48" height="24" fill="#87f5b5" opacity="0.080"/>
<rect x="0" y="192" width="24" height="24" fill="#ffffff" opacity="0.035"/>
<rect x="96" y="192" width="24" height="24" fill="#ffffff" opacity="0.081"/>
<rect x="120" y="192" width="48" height="24" fill="#64d2ff" opacity="0.046"/>
<rect x="144" y="192" width="48" height="24" fill="#87f5b5" opacity="0.150"/>
<rect x="240" y="192" width="48" height="24" fill="#87f5b5" opacity="0.124"/>
<rect x="264" y="192" width="24" height="24" fill="#64d2ff" opacity="0.127"/>
<rect x="288" y="192" width="24" height="24" fill="#ffffff" opacity="0.120"/>
<rect x="384" y="192" width="24" height="24" fill="#ffffff" opacity="0.135"/>
<rect x="456" y="192" width="24" height="24" fill="#ffd166" opacity="0.130"/>
<rect x="552" y="192" width="48" height="24" fill="#ffd166" opacity="0.143"/>
<rect x="600" y="192" width="24" height="24" fill="#64d2ff" opacity="0.131"/>
<rect x="672" y="192" width="24" height="24" fill="#64d2ff" opacity="0.094"/>
<rect x="696" y="192" width="24" height="24" fill="#ffffff" opacity="0.043"/>
<rect x="768" y="192" width="24" height="24" fill="#ffd166" opacity="0.089"/>
<rect x="864" y="192" width="48" height="24" fill="#64d2ff" opacity="0.126"/>
<rect x="1032" y="192" width="24" height="24" fill="#ffd166" opacity="0.145"/>
<rect x="1056" y="192" width="24" height="24" fill="#64d2ff" opacity="0.117"/>
<rect x="24" y="216" width="24" height="24" fill="#8aa4ff" opacity="0.055"/>
<rect x="168" y="216" width="24" height="24" fill="#87f5b5" opacity="0.114"/>
<rect x="192" y="216" width="48" height="24" fill="#ffd166" opacity="0.106"/>
<rect x="288" y="216" width="48" height="24" fill="#8aa4ff" opacity="0.137"/>
<rect x="312" y="216" width="24" height="24" fill="#8aa4ff" opacity="0.056"/>
<rect x="384" y="216" width="24" height="24" fill="#8aa4ff" opacity="0.048"/>
<rect x="432" y="216" width="24" height="24" fill="#64d2ff" opacity="0.144"/>
<rect x="552" y="216" width="24" height="24" fill="#ffd166" opacity="0.094"/>
<rect x="864" y="216" width="24" height="24" fill="#ffd166" opacity="0.058"/>
<rect x="1032" y="216" width="24" height="24" fill="#87f5b5" opacity="0.041"/>
<rect x="1056" y="216" width="24" height="24" fill="#64d2ff" opacity="0.098"/>
<rect x="1080" y="216" width="48" height="24" fill="#87f5b5" opacity="0.049"/>
<rect x="1128" y="216" width="48" height="24" fill="#ffffff" opacity="0.088"/>
<rect x="1152" y="216" width="24" height="24" fill="#ffffff" opacity="0.128"/>
<rect x="0" y="105" width="36" height="138" fill="#0b1020" opacity="0.233"/>
<rect x="28" y="110" width="29" height="133" fill="#0b1020" opacity="0.175"/>
<rect x="56" y="129" width="38" height="114" fill="#64d2ff" opacity="0.224"/>
<rect x="84" y="106" width="28" height="137" fill="#64d2ff" opacity="0.234"/>
<rect x="112" y="72" width="21" height="171" fill="#13233a" opacity="0.196"/>
<rect x="140" y="106" width="52" height="137" fill="#64d2ff" opacity="0.162"/>
<rect x="168" y="109" width="21" height="134" fill="#64d2ff" opacity="0.195"/>
<rect x="196" y="94" width="18" height="149" fill="#13233a" opacity="0.195"/>
<rect x="224" y="131" width="44" height="112" fill="#13233a" opacity="0.234"/>
<rect x="252" y="81" width="29" height="162" fill="#0b1020" opacity="0.255"/>
<rect x="280" y="72" width="24" height="171" fill="#13233a" opacity="0.131"/>
<rect x="308" y="132" width="45" height="111" fill="#8aa4ff" opacity="0.156"/>
<rect x="336" y="121" width="50" height="122" fill="#13233a" opacity="0.189"/>
<rect x="364" y="107" width="34" height="136" fill="#13233a" opacity="0.133"/>
<rect x="392" y="130" width="41" height="113" fill="#8aa4ff" opacity="0.156"/>
<rect x="420" y="66" width="25" height="177" fill="#8aa4ff" opacity="0.132"/>
<rect x="448" y="96" width="34" height="147" fill="#13233a" opacity="0.188"/>
<rect x="476" y="106" width="49" height="137" fill="#8aa4ff" opacity="0.106"/>
<rect x="504" y="84" width="32" height="159" fill="#8aa4ff" opacity="0.151"/>
<rect x="532" y="105" width="43" height="138" fill="#13233a" opacity="0.252"/>
<rect x="560" y="82" width="45" height="161" fill="#13233a" opacity="0.190"/>
<rect x="588" y="104" width="23" height="139" fill="#64d2ff" opacity="0.218"/>
<rect x="616" y="91" width="46" height="152" fill="#64d2ff" opacity="0.119"/>
<rect x="644" y="117" width="30" height="126" fill="#13233a" opacity="0.242"/>
<rect x="672" y="66" width="37" height="177" fill="#64d2ff" opacity="0.133"/>
<rect x="700" y="117" width="22" height="126" fill="#13233a" opacity="0.242"/>
<rect x="728" y="95" width="39" height="148" fill="#64d2ff" opacity="0.149"/>
<rect x="756" y="89" width="39" height="154" fill="#64d2ff" opacity="0.181"/>
<rect x="784" y="117" width="37" height="126" fill="#13233a" opacity="0.124"/>
<rect x="812" y="95" width="51" height="148" fill="#13233a" opacity="0.189"/>
<rect x="840" y="89" width="54" height="154" fill="#64d2ff" opacity="0.118"/>
<rect x="868" y="110" width="46" height="133" fill="#0b1020" opacity="0.144"/>
<rect x="896" y="77" width="26" height="166" fill="#8aa4ff" opacity="0.249"/>
<rect x="924" y="72" width="41" height="171" fill="#13233a" opacity="0.139"/>
<rect x="952" y="81" width="30" height="162" fill="#8aa4ff" opacity="0.107"/>
<rect x="980" y="74" width="51" height="169" fill="#64d2ff" opacity="0.215"/>
<rect x="1008" y="83" width="36" height="160" fill="#13233a" opacity="0.219"/>
<rect x="1036" y="72" width="53" height="171" fill="#64d2ff" opacity="0.202"/>
<rect x="1064" y="112" width="20" height="131" fill="#8aa4ff" opacity="0.140"/>
<rect x="1092" y="133" width="49" height="110" fill="#0b1020" opacity="0.101"/>
<rect x="1120" y="83" width="41" height="160" fill="#13233a" opacity="0.113"/>
<rect x="1148" y="114" width="45" height="129" fill="#13233a" opacity="0.167"/>
<rect x="1176" y="80" width="42" height="163" fill="#13233a" opacity="0.252"/>
<polyline points="-40,56 62,80 167,71 256,79 381,67 518,71 620,88 716,80 812,80 949,52 1059,71 1204,60" fill="none" stroke="#87f5b5" stroke-width="1.37" opacity="0.292" filter="url(#tiny)"/>
<polyline points="-40,49 50,42 155,68 245,56 351,68 451,55 599,70 726,43 848,37 951,53 1042,47 1152,54" fill="none" stroke="#64d2ff" stroke-width="1.58" opacity="0.237" filter="url(#tiny)"/>
<polyline points="-40,48 110,62 254,74 339,62 487,76 597,72 699,70 796,61 930,46 1033,65 1152,75" fill="none" stroke="#8aa4ff" stroke-width="1.34" opacity="0.238" filter="url(#tiny)"/>
<polyline points="-40,192 84,182 192,182 290,193 394,161 518,171 620,176 762,193 899,176 1013,193 1157,170" fill="none" stroke="#64d2ff" stroke-width="2.30" opacity="0.194" filter="url(#tiny)"/>
<polyline points="-40,58 79,50 164,46 309,49 451,66 575,49 669,56 810,43 920,50 1013,44 1127,63 1212,44" fill="none" stroke="#87f5b5" stroke-width="1.04" opacity="0.391" filter="url(#tiny)"/>
<polyline points="-40,70 46,89 156,60 274,67 399,58 488,66 609,70 701,89 829,82 923,73 1033,74 1146,66" fill="none" stroke="#87f5b5" stroke-width="1.27" opacity="0.220" filter="url(#tiny)"/>
<polyline points="-40,65 91,44 208,62 293,54 395,46 495,66 613,42 719,50 865,38 955,34 1041,35 1187,49" fill="none" stroke="#64d2ff" stroke-width="1.90" opacity="0.244" filter="url(#tiny)"/>
<circle cx="1146" cy="36" r="2.8" fill="#87f5b5" opacity="0.650"/>
<circle cx="592" cy="63" r="1.8" fill="#8aa4ff" opacity="0.482"/>
<circle cx="438" cy="92" r="2.2" fill="#ffd166" opacity="0.696"/>
<circle cx="462" cy="185" r="2.2" fill="#87f5b5" opacity="0.308"/>
<circle cx="470" cy="182" r="2.2" fill="#64d2ff" opacity="0.295"/>
<circle cx="589" cy="90" r="1.4" fill="#8aa4ff" opacity="0.349"/>
<circle cx="153" cy="44" r="1.4" fill="#64d2ff" opacity="0.335"/>
<circle cx="1138" cy="93" r="2.2" fill="#64d2ff" opacity="0.666"/>
<circle cx="299" cy="46" r="2.2" fill="#87f5b5" opacity="0.496"/>
<circle cx="687" cy="116" r="1.4" fill="#ffd166" opacity="0.483"/>
<circle cx="552" cy="62" r="1.4" fill="#ffd166" opacity="0.537"/>
<circle cx="347" cy="159" r="1.8" fill="#ffd166" opacity="0.505"/>
<circle cx="928" cy="152" r="1.8" fill="#8aa4ff" opacity="0.644"/>
<circle cx="1145" cy="126" r="1.8" fill="#8aa4ff" opacity="0.705"/>
<circle cx="731" cy="71" r="2.2" fill="#8aa4ff" opacity="0.554"/>
<circle cx="1035" cy="184" r="1.4" fill="#ffd166" opacity="0.635"/>
<circle cx="359" cy="189" r="2.8" fill="#87f5b5" opacity="0.427"/>
<circle cx="154" cy="128" r="1.4" fill="#87f5b5" opacity="0.503"/>
<circle cx="755" cy="182" r="2.8" fill="#8aa4ff" opacity="0.334"/>
<circle cx="992" cy="95" r="1.8" fill="#64d2ff" opacity="0.679"/>
<circle cx="47" cy="133" r="2.8" fill="#64d2ff" opacity="0.389"/>
<circle cx="510" cy="30" r="1.8" fill="#87f5b5" opacity="0.484"/>
<circle cx="1040" cy="49" r="1.4" fill="#8aa4ff" opacity="0.539"/>
<circle cx="848" cy="117" r="2.2" fill="#ffd166" opacity="0.422"/>
<circle cx="492" cy="110" r="1.4" fill="#ffd166" opacity="0.717"/>
<circle cx="607" cy="72" r="1.8" fill="#87f5b5" opacity="0.593"/>
<circle cx="839" cy="187" r="2.8" fill="#8aa4ff" opacity="0.318"/>
<circle cx="1109" cy="146" r="2.8" fill="#64d2ff" opacity="0.333"/>
<circle cx="1017" cy="185" r="2.2" fill="#87f5b5" opacity="0.292"/>
<circle cx="374" cy="56" r="2.8" fill="#ffd166" opacity="0.442"/>
<circle cx="210" cy="75" r="2.2" fill="#64d2ff" opacity="0.478"/>
<circle cx="515" cy="102" r="2.2" fill="#8aa4ff" opacity="0.471"/>
<circle cx="143" cy="108" r="2.8" fill="#64d2ff" opacity="0.516"/>
<circle cx="516" cy="35" r="2.2" fill="#87f5b5" opacity="0.558"/>
<ellipse cx="557" cy="18" rx="260" ry="42" fill="#64d2ff" opacity="0.07" filter="url(#soft)"/>
<rect x="0" y="0" width="1200" height="220" fill="none" stroke="#ffffff" opacity="0.10"/>
<text x="1174" y="196" text-anchor="end" font-family="ui-monospace, SFMono-Regular, Menlo, monospace" font-size="11" fill="#ffffff" opacity="0.22">seed 2026.07.09</text>
</svg>
